<svg xmlns="http://www.w3.org/2000/svg" xmlns:xlink="http://www.w3.org/1999/xlink" width="161.047" height="59.884" xmlns:v="http://vecta.io/nano"><defs><path id="A" d="M27.384 30.028c-.262.16-.43.365-.5.618l-3.815 12.595-4.737-12.57c-.245-.589-.676-.884-1.288-.884-.598 0-1.019.295-1.265.884l-4.711 12.57-3.816-12.595c-.07-.253-.236-.458-.499-.618a1.64 1.64 0 0 0-.869-.241c-.386 0-.715.126-.986.379s-.409.547-.409.884c0 .184.063.429.186.732l4.789 14.867c.211.674.711 1.01 1.5 1.01.736 0 1.236-.336 1.5-1.01l4.605-11.965 4.605 11.965c.228.674.719 1.01 1.473 1.01.79 0 1.299-.336 1.527-1.01l4.789-14.867c.105-.269.158-.513.158-.732 0-.337-.131-.632-.396-.884a1.35 1.35 0 0 0-.973-.379 1.63 1.63 0 0 0-.868.241"/><path id="B" d="M30.984 52.003h-.912v.813h1.021v.244h-1.328v-2.253h1.275v.244h-.968v.712h.912v.24z"/><path id="C" d="M78.801 52.705c.137.083.332.147.541.147.313 0 .494-.154.494-.385 0-.207-.127-.331-.445-.445-.383-.133-.621-.326-.621-.641 0-.352.305-.611.762-.611.238 0 .416.053.518.109l-.084.238c-.074-.044-.23-.107-.443-.107-.322 0-.445.184-.445.338 0 .21.145.313.469.434.398.15.598.331.598.662 0 .348-.266.651-.82.651-.229 0-.477-.067-.602-.147l.078-.243z"/></defs><clipPath id="D"><use xlink:href="#A"/></clipPath><linearGradient id="E" gradientUnits="userSpaceOnUse" x1="23.071" y1="38.604" x2="174.444" y2="38.604"><stop offset="0" stop-color="#373780"/><stop offset=".006" stop-color="#373780"/><stop offset=".018" stop-color="#373881"/><stop offset=".245" stop-color="#374a8f"/><stop offset=".48" stop-color="#385899"/><stop offset=".726" stop-color="#3860a0"/><stop offset="1" stop-color="#3863a2"/></linearGradient><path clip-path="url(#D)" fill="url(#E)" d="M4.488 29.787h25.133v17.872H4.488z"/><defs><path id="F" d="M31.568 37.487c.789-.606 1.666-.909 2.631-.909 1.018 0 1.896.308 2.633.92s1.156 1.461 1.263 2.538h-7.842c.104-1.111.543-1.961 1.315-2.549m-1.894-1.565c-.702.521-1.259 1.231-1.671 2.134s-.619 1.879-.619 2.939c0 1.398.347 2.625 1.04 3.686s1.583 1.825 2.671 2.297c1.052.455 2.175.682 3.368.682 1.702 0 3.07-.412 4.105-1.237.474-.368.71-.747.71-1.136 0-.286-.087-.518-.263-.693s-.412-.266-.711-.266c-.228 0-.597.136-1.104.404a5.09 5.09 0 0 1-2.634.731c-1.14 0-2.108-.312-2.906-.935s-1.269-1.479-1.408-2.574l8.814.025c1.159 0 1.737-.479 1.737-1.439 0-1.9-.693-3.415-2.079-4.543-1.368-1.162-2.877-1.742-4.526-1.742-1.612 0-3.121.557-4.524 1.667"/></defs><clipPath id="G"><use xlink:href="#F"/></clipPath><linearGradient id="H" gradientUnits="userSpaceOnUse" x1="22.995" y1="40.965" x2="175.216" y2="40.965"><stop offset="0" stop-color="#373780"/><stop offset=".006" stop-color="#373780"/><stop offset=".018" stop-color="#373881"/><stop offset=".245" stop-color="#374a8f"/><stop offset=".48" stop-color="#385899"/><stop offset=".726" stop-color="#3860a0"/><stop offset="1" stop-color="#3863a2"/></linearGradient><path clip-path="url(#G)" fill="url(#H)" d="M27.384 34.255h13.421v13.404H27.384z"/><defs><path id="I" d="M44.003 31.516c-.273.262-.408.568-.408.922v1.969h-1c-.333 0-.604.097-.815.289s-.316.451-.316.771c0 .336.104.6.316.795s.482.291.815.291h1v7.672c0 1.246.268 2.129.803 2.65s1.312.783 2.328.783c.825 0 1.484-.131 1.974-.391s.737-.627.737-1.099c0-.319-.104-.567-.315-.745s-.482-.24-.815-.189c-.018 0-.171.021-.461.064l-.565.063c-.614 0-.922-.37-.922-1.111v-7.697h1.922c.474.032.812-.141 1.013-.519a1.14 1.14 0 0 0 0-1.136c-.201-.379-.539-.543-1.013-.492h-1.922v-1.969c0-.354-.136-.66-.406-.922a1.38 1.38 0 0 0-.988-.39 1.35 1.35 0 0 0-.962.391"/></defs><clipPath id="J"><use xlink:href="#I"/></clipPath><linearGradient id="K" gradientUnits="userSpaceOnUse" x1="23.222" y1="39.345" x2="173.203" y2="39.345"><stop offset="0" stop-color="#373780"/><stop offset=".006" stop-color="#373780"/><stop offset=".018" stop-color="#373881"/><stop offset=".245" stop-color="#374a8f"/><stop offset=".48" stop-color="#385899"/><stop offset=".726" stop-color="#3860a0"/><stop offset="1" stop-color="#3863a2"/></linearGradient><path clip-path="url(#J)" fill="url(#K)" d="M41.463 31.126h8.031v16.533h-8.031z"/><defs><path id="L" d="M54.622 44.251c-.825-.79-1.237-1.884-1.237-3.281 0-1.38.412-2.465 1.237-3.256.807-.773 1.754-1.16 2.841-1.16 1.035 0 1.957.377 2.763 1.135.826.74 1.238 1.834 1.238 3.281s-.412 2.549-1.238 3.307c-.806.758-1.728 1.136-2.763 1.136a3.97 3.97 0 0 1-2.841-1.162m.171-9.566a7.08 7.08 0 0 0-2.066 1.237c-.63.538-1.145 1.245-1.539 2.12s-.593 1.852-.593 2.928c0 1.397.324 2.631.974 3.698s1.475 1.847 2.474 2.334c.93.472 1.922.708 2.974.708 1.14 0 2.123-.294 2.948-.884.807-.571 1.263-1.187 1.368-1.843v1.363a1.26 1.26 0 0 0 .408.946 1.37 1.37 0 0 0 .986.392c.385 0 .719-.131.999-.392s.423-.575.423-.946V35.669a1.24 1.24 0 0 0-.423-.945 1.41 1.41 0 0 0-.999-.394c-.386 0-.715.132-.986.394a1.26 1.26 0 0 0-.408.945v1.01c-.352-.74-.917-1.33-1.697-1.767s-1.654-.657-2.619-.657a6.17 6.17 0 0 0-2.224.43"/></defs><clipPath id="M"><use xlink:href="#L"/></clipPath><linearGradient id="N" gradientUnits="userSpaceOnUse" x1="22.859" y1="40.965" x2="175.05" y2="40.965"><stop offset="0" stop-color="#373780"/><stop offset=".006" stop-color="#373780"/><stop offset=".018" stop-color="#373881"/><stop offset=".245" stop-color="#374a8f"/><stop offset=".48" stop-color="#385899"/><stop offset=".726" stop-color="#3860a0"/><stop offset="1" stop-color="#3863a2"/></linearGradient><path clip-path="url(#M)" fill="url(#N)" d="M50.595 34.255h13.554V47.71H50.595z"/><defs><path id="O" d="M67.582 30.154a1.33 1.33 0 0 0-.436.997v15.095a1.33 1.33 0 0 0 .436.997 1.45 1.45 0 0 0 1.04.416c.385 0 .719-.139.999-.416s.422-.609.422-.997V31.151a1.36 1.36 0 0 0-.422-.997c-.28-.279-.614-.417-.999-.417-.404 0-.751.138-1.04.417"/></defs><clipPath id="P"><use xlink:href="#O"/></clipPath><linearGradient id="Q" gradientUnits="userSpaceOnUse" x1="22.995" y1="38.604" x2="174.368" y2="38.604"><stop offset="0" stop-color="#373780"/><stop offset=".006" stop-color="#373780"/><stop offset=".018" stop-color="#373881"/><stop offset=".245" stop-color="#374a8f"/><stop offset=".48" stop-color="#385899"/><stop offset=".726" stop-color="#3860a0"/><stop offset="1" stop-color="#3863a2"/></linearGradient><path clip-path="url(#P)" fill="url(#Q)" d="M67.146 29.737h2.896v17.922h-2.896z"/><defs><path id="R" d="M77.254 35.366c-.878.74-1.353 1.404-1.422 1.994v-1.666c0-.37-.136-.689-.408-.959a1.35 1.35 0 0 0-.987-.405c-.385 0-.714.136-.987.405s-.407.589-.407.959v10.627c0 .371.136.686.407.947a1.38 1.38 0 0 0 .987.391 1.38 1.38 0 0 0 .987-.391c.272-.262.408-.576.408-.947v-6.487c.105-.724.481-1.446 1.132-2.171s1.535-1.085 2.657-1.085c.965 0 1.741.299 2.33.896s.882 1.477.882 2.639v6.209a1.26 1.26 0 0 0 .407.947c.271.26.601.391.986.391a1.33 1.33 0 0 0 .973-.391 1.28 1.28 0 0 0 .396-.947v-6.209c0-2.02-.484-3.492-1.449-4.418-.98-.942-2.184-1.413-3.604-1.413-1.333-.001-2.43.362-3.288 1.084"/></defs><clipPath id="S"><use xlink:href="#R"/></clipPath><linearGradient id="T" gradientUnits="userSpaceOnUse" x1="23.071" y1="40.965" x2="174.444" y2="40.965"><stop offset="0" stop-color="#373780"/><stop offset=".006" stop-color="#373780"/><stop offset=".018" stop-color="#373881"/><stop offset=".245" stop-color="#374a8f"/><stop offset=".48" stop-color="#385899"/><stop offset=".726" stop-color="#3860a0"/><stop offset="1" stop-color="#3863a2"/></linearGradient><path clip-path="url(#S)" fill="url(#T)" d="M73.042 34.281h12.554v13.378H73.042z"/><defs><path id="U" d="M92.49 29.371c-.457.126-.919.337-1.383.63s-.842.738-1.132 1.326-.434 1.296-.434 2.121v.959h-.868c-.334 0-.605.097-.816.289a1 1 0 0 0-.315.771c0 .336.105.6.315.795s.482.291.816.291h.868v9.793a1.26 1.26 0 0 0 .407.946c.272.261.602.392.987.392a1.34 1.34 0 0 0 .96-.392 1.26 1.26 0 0 0 .408-.946v-9.793h2.632c.474.032.813-.141 1.013-.519a1.14 1.14 0 0 0 0-1.136c-.2-.379-.539-.543-1.013-.492h-2.632v-.859c0-.622.162-1.126.487-1.514s.811-.581 1.461-.581c.333 0 .745.102 1.235.303.457.169.791.252 1 .252.3 0 .545-.091.737-.277s.29-.42.29-.707c0-.438-.237-.79-.711-1.06-.754-.521-1.719-.782-2.894-.782-.489.001-.963.064-1.418.19"/></defs><clipPath id="V"><use xlink:href="#U"/></clipPath><linearGradient id="W" gradientUnits="userSpaceOnUse" x1="22.48" y1="38.316" x2="174.989" y2="38.316"><stop offset="0" stop-color="#373780"/><stop offset=".006" stop-color="#373780"/><stop offset=".018" stop-color="#373881"/><stop offset=".245" stop-color="#374a8f"/><stop offset=".48" stop-color="#385899"/><stop offset=".726" stop-color="#3860a0"/><stop offset="1" stop-color="#3863a2"/></linearGradient><path clip-path="url(#V)" fill="url(#W)" d="M87.542 29.182h9.974v18.502h-9.974z"/><defs><path id="X" d="M98.385 44.201c-.843-.774-1.264-1.843-1.264-3.206s.412-2.439 1.236-3.23c.859-.791 1.833-1.187 2.921-1.187s2.063.396 2.921 1.187c.843.791 1.264 1.867 1.264 3.23s-.421 2.432-1.264 3.206c-.858.791-1.834 1.187-2.921 1.187-1.069 0-2.034-.396-2.893-1.187m-.317-9.188c-1.018.506-1.887 1.262-2.605 2.271-.737 1.061-1.105 2.297-1.105 3.711s.368 2.65 1.105 3.711c.754 1.061 1.641 1.826 2.659 2.296 1 .472 2.052.708 3.156.708a6.92 6.92 0 0 0 2.369-.429c.789-.287 1.53-.694 2.225-1.224s1.258-1.238 1.695-2.121.658-1.865.658-2.941-.219-2.057-.658-2.939-1.004-1.596-1.695-2.134-1.436-.95-2.225-1.237-1.58-.43-2.369-.43c-1.123 0-2.192.254-3.21.758"/></defs><clipPath id="Y"><use xlink:href="#X"/></clipPath><linearGradient id="Z" gradientUnits="userSpaceOnUse" x1="22.632" y1="40.965" x2="174.807" y2="40.965"><stop offset="0" stop-color="#373780"/><stop offset=".006" stop-color="#373780"/><stop offset=".018" stop-color="#373881"/><stop offset=".245" stop-color="#374a8f"/><stop offset=".48" stop-color="#385899"/><stop offset=".726" stop-color="#3860a0"/><stop offset="1" stop-color="#3863a2"/></linearGradient><path clip-path="url(#Y)" fill="url(#Z)" d="M94.357 34.255h13.868V47.71H94.357z"/><defs><path id="a" d="M105.73 30.3c-.351 0-.648.119-.894.354s-.368.522-.368.858a1.14 1.14 0 0 0 .368.858 1.24 1.24 0 0 0 .894.354h4.158v13.958a1.37 1.37 0 0 0 .434 1.01c.29.287.629.43 1.014.43.369 0 .693-.143.974-.43a1.39 1.39 0 0 0 .421-1.01V32.724h4.159a1.24 1.24 0 0 0 .894-.354 1.14 1.14 0 0 0 .368-.858c0-.336-.122-.622-.368-.858s-.543-.354-.894-.354h-11.16z"/></defs><clipPath id="b"><use xlink:href="#a"/></clipPath><linearGradient id="c" gradientUnits="userSpaceOnUse" x1="22.995" y1="39.194" x2="174.368" y2="39.194"><stop offset="0" stop-color="#373780"/><stop offset=".006" stop-color="#373780"/><stop offset=".018" stop-color="#373881"/><stop offset=".245" stop-color="#374a8f"/><stop offset=".48" stop-color="#385899"/><stop offset=".726" stop-color="#3860a0"/><stop offset="1" stop-color="#3863a2"/></linearGradient><path clip-path="url(#b)" fill="url(#c)" d="M104.469 30.3h13.683v17.822h-13.683z"/><defs><path id="d" d="M118.1 37.925c.789-.607 1.667-.91 2.632-.91 1.018 0 1.895.309 2.631.922s1.158 1.461 1.264 2.537h-7.843c.106-1.112.544-1.961 1.316-2.549m-1.895-1.567c-.701.522-1.26 1.234-1.672 2.134s-.617 1.88-.617 2.94c0 1.397.346 2.625 1.039 3.686s1.583 1.826 2.672 2.298c1.052.453 2.175.681 3.367.681 1.701 0 3.069-.412 4.105-1.238.475-.368.71-.748.71-1.135 0-.285-.088-.518-.263-.693s-.412-.266-.711-.266c-.228 0-.596.135-1.105.404-.824.488-1.702.732-2.631.732-1.141 0-2.109-.313-2.908-.934s-1.268-1.482-1.408-2.576l8.816.025c1.158 0 1.737-.48 1.737-1.438 0-1.902-.693-3.418-2.079-4.545-1.368-1.16-2.878-1.742-4.526-1.742-1.614.001-3.123.557-4.526 1.667"/></defs><clipPath id="e"><use xlink:href="#d"/></clipPath><linearGradient id="f" gradientUnits="userSpaceOnUse" x1="23.071" y1="41.268" x2="174.444" y2="41.268"><stop offset="0" stop-color="#373780"/><stop offset=".006" stop-color="#373780"/><stop offset=".018" stop-color="#373881"/><stop offset=".245" stop-color="#374a8f"/><stop offset=".48" stop-color="#385899"/><stop offset=".726" stop-color="#3860a0"/><stop offset="1" stop-color="#3863a2"/></linearGradient><path clip-path="url(#e)" fill="url(#f)" d="M113.916 34.692h13.421v13.404h-13.421z"/><defs><path id="g" d="M133.271 35.122c-.799.287-1.54.699-2.224 1.236s-1.236 1.246-1.657 2.121-.632 1.852-.632 2.928.21 2.054.632 2.929.973 1.577 1.657 2.106 1.425.938 2.224 1.225 1.601.43 2.408.43c1.807 0 3.28-.572 4.421-1.716.019-.019.07-.063.158-.139l.171-.165.146-.176c.069-.084.117-.156.145-.215a1.95 1.95 0 0 0 .079-.228c.026-.093.04-.19.04-.29 0-.303-.111-.552-.33-.744s-.487-.291-.803-.291c-.422 0-.799.159-1.131.479-.686.775-1.614 1.162-2.791 1.162-1.192 0-2.2-.387-3.025-1.162-.825-.789-1.236-1.859-1.236-3.205s.411-2.414 1.236-3.206c.86-.79 1.868-1.187 3.025-1.187 1.177 0 2.105.389 2.791 1.162.332.32.709.479 1.131.479a1.17 1.17 0 0 0 .803-.291c.219-.192.33-.44.33-.744 0-.101-.014-.198-.04-.29s-.053-.168-.079-.229-.075-.129-.145-.213l-.146-.178c-.026-.033-.084-.088-.171-.164l-.158-.139c-1.141-1.145-2.614-1.717-4.421-1.717a7.14 7.14 0 0 0-2.408.432"/></defs><clipPath id="h"><use xlink:href="#g"/></clipPath><linearGradient id="i" gradientUnits="userSpaceOnUse" x1="23.737" y1="41.268" x2="174.187" y2="41.268"><stop offset="0" stop-color="#373780"/><stop offset=".006" stop-color="#373780"/><stop offset=".018" stop-color="#373881"/><stop offset=".245" stop-color="#374a8f"/><stop offset=".48" stop-color="#385899"/><stop offset=".726" stop-color="#3860a0"/><stop offset="1" stop-color="#3863a2"/></linearGradient><path clip-path="url(#h)" fill="url(#i)" d="M128.758 34.692h12.08v13.404h-12.08z"/><defs><path id="j" d="M143.718 30.339a1.26 1.26 0 0 0-.408.946v15.474a1.26 1.26 0 0 0 .408.946c.272.26.601.392.987.392s.714-.131.985-.392a1.26 1.26 0 0 0 .409-.946v-6.488c.105-.723.481-1.446 1.131-2.17s1.536-1.086 2.658-1.086c.965 0 1.741.299 2.329.897s.882 1.476.882 2.638v6.209c0 .37.135.686.408.946a1.37 1.37 0 0 0 .986.392 1.33 1.33 0 0 0 .974-.392c.263-.261.395-.576.395-.946V40.55c0-2.02-.482-3.492-1.447-4.419-.982-.942-2.184-1.413-3.605-1.413-1.333 0-2.43.362-3.289 1.086-.878.74-1.351 1.405-1.421 1.993v-6.512c0-.37-.136-.686-.409-.946a1.37 1.37 0 0 0-.985-.392c-.388 0-.716.131-.988.392"/></defs><clipPath id="k"><use xlink:href="#j"/></clipPath><linearGradient id="l" gradientUnits="userSpaceOnUse" x1="23.071" y1="38.906" x2="174.444" y2="38.906"><stop offset="0" stop-color="#373780"/><stop offset=".006" stop-color="#373780"/><stop offset=".018" stop-color="#373881"/><stop offset=".245" stop-color="#374a8f"/><stop offset=".48" stop-color="#385899"/><stop offset=".726" stop-color="#3860a0"/><stop offset="1" stop-color="#3863a2"/></linearGradient><path clip-path="url(#k)" fill="url(#l)" d="M143.31 29.947h12.553v18.149H143.31z"/><defs><path id="m" d="M65.255 5.197l-4.859.009-1.565.002c-1.207.003-2.416.006-3.623-.011-.774-.009-1.105.158-.752 1.017 1.674 4.086 3.188 8.238 5.232 12.162.475.909 1.016 1.806 1.66 2.599 3.104 3.825 7.591 4.109 11.333.806 2.121-1.871 3.444-4.281 4.753-6.717.991-1.844 1.784-3.816 3.167-5.419 1.446-1.679 3.063-1.927 5.04-.906.209.108.414.418.671.175.21-.2.069-.487-.002-.731-.567-1.962-2.811-3.014-4.928-2.303-1.813.608-3.036 1.929-3.98 3.496-.928 1.544-1.729 3.163-2.577 4.753-1.007 1.886-2.006 3.793-3.61 5.248-2.828 2.562-6.236 2.721-8.462-1.144-1.731-3.003-3.055-6.202-4.46-9.361-.294-.66-.148-.937.612-.924 1.805.029 3.608.045 5.411-.006.826-.024 1.282.305 1.615 1.028.738 1.605 1.522 3.188 2.298 4.775.379.776 1.002 1.07 1.824.77.73-.268 1.042-1.13.654-1.944l-2.875-5.842c-.515-1.049-1.336-1.533-2.489-1.533l-.088.001"/></defs><clipPath id="n"><use xlink:href="#m"/></clipPath><linearGradient id="o" gradientUnits="userSpaceOnUse" x1="54.313" y1="15.133" x2="86.422" y2="15.133"><stop offset="0" stop-color="#373780"/><stop offset=".006" stop-color="#373780"/><stop offset=".018" stop-color="#373881"/><stop offset=".245" stop-color="#374a8f"/><stop offset=".48" stop-color="#385899"/><stop offset=".726" stop-color="#3860a0"/><stop offset="1" stop-color="#3863a2"/></linearGradient><path clip-path="url(#n)" fill="url(#o)" d="M54.102 5.169h32.42v19.915h-32.42z"/><defs><path id="p" d="M105.708 5.176l-3.65.012c-.514 0-1.029-.002-1.543-.002-1.695.002-3.389.008-5.082-.001-.919-.005-1.665.323-2.147 1.116-1.247 2.049-2.165 4.265-3.191 6.424-.35.735-.068 1.417.652 1.772s1.375.147 1.81-.554c.214-.342.375-.718.552-1.082l1.963-4.08c.265-.565.643-.825 1.288-.813l5.414.003c.753-.008 1.005.194.687.976l-3.749 8.24c-.5.985-1.099 1.918-1.892 2.707-.908.906-1.965 1.381-3.276 1.277-2.159-.17-3.67-1.403-4.947-2.992-1.556-1.938-2.565-4.205-3.735-6.374-.433-.803-1.037-1.275-1.979-.813-.75.368-.942 1.188-.476 2.104l2.129 3.996c.916 1.649 1.986 3.182 3.394 4.466 2.815 2.569 6.342 3.223 9.134 1.666 1.85-1.032 3.006-2.692 3.962-4.495 2.146-4.043 3.65-8.363 5.382-12.583.306-.742.08-.971-.637-.971a1.26 1.26 0 0 0-.063.001"/></defs><clipPath id="q"><use xlink:href="#p"/></clipPath><linearGradient id="r" gradientUnits="userSpaceOnUse" x1="-366.881" y1="327.495" x2="-365.881" y2="327.495" gradientTransform="matrix(21.2175 -12.0204 -12.0204 -21.2175 11814.5791 2553.967)"><stop offset="0" stop-color="#9ba851"/><stop offset=".006" stop-color="#9ba851"/><stop offset=".234" stop-color="#889545"/><stop offset=".709" stop-color="#6a7833"/><stop offset="1" stop-color="#606e2d"/></linearGradient><path clip-path="url(#q)" fill="url(#r)" d="M73.529 9.939L100.69-5.449l14.428 25.466-27.161 15.388z"/><g fill="#9ba851"><path d="M26.736 51.054h-.717v-.247h1.744v.247h-.72v2.006h-.308v-2.006z"/><use xlink:href="#B"/><path d="M33.226 50.807h.308v2.009h1.007v.244h-1.314v-2.253z"/><use xlink:href="#B" x="6.853"/><path d="M41.699 52.989c-.108.053-.336.106-.622.106-.664 0-1.16-.401-1.16-1.143 0-.708.499-1.183 1.229-1.183.29 0 .479.06.56.1l-.077.237a1.11 1.11 0 0 0-.472-.093.85.85 0 0 0-.919.928c0 .555.332.906.901.906a1.27 1.27 0 0 0 .5-.094l.06.236zm2.996.107c-.626 0-1.059-.461-1.059-1.143 0-.716.461-1.183 1.09-1.183.646 0 1.063.471 1.063 1.139 0 .772-.493 1.187-1.09 1.187h-.004zm.013-.238c.482 0 .755-.424.755-.936 0-.447-.244-.916-.751-.916s-.759.451-.759.939c0 .475.273.912.752.912h.003zm5.202-.789l-.038-.972h-.007l-.297.855-.416 1.093h-.23l-.385-1.072-.269-.876h-.008l-.045.995-.063.967h-.29l.164-2.253h.388l.401 1.089.238.76h.007l.251-.76.42-1.089h.388l.146 2.253h-.3l-.055-.99zm5.013.636c.136.083.331.147.541.147.312 0 .493-.154.493-.385 0-.207-.126-.331-.444-.445-.384-.133-.622-.326-.622-.641 0-.352.305-.611.762-.611.238 0 .416.053.518.109l-.084.238c-.073-.044-.23-.107-.443-.107-.322 0-.444.184-.444.338 0 .21.144.313.469.434.398.15.598.331.598.662 0 .348-.266.651-.821.651-.228 0-.476-.067-.602-.147l.079-.243z"/><use xlink:href="#B" x="28.658"/><path d="M61.888 50.841a3.21 3.21 0 0 1 .583-.051c.325 0 .539.061.686.188a.55.55 0 0 1 .185.428c0 .294-.199.49-.443.571v.01c.179.06.286.221.346.454l.179.619h-.314c-.039-.064-.091-.258-.154-.539-.069-.311-.199-.428-.475-.438h-.287v.977h-.304v-2.219zm.304 1.021h.312c.324 0 .531-.17.531-.428 0-.29-.221-.418-.542-.418-.146 0-.248.014-.301.027v.819zm3.662 1.198l-.772-2.253h.332l.366 1.109.252.843h.007a8.41 8.41 0 0 1 .27-.84l.398-1.112h.324l-.842 2.253h-.335zm3.478-2.253v2.253h-.307v-2.253h.307zm3.918 2.182c-.107.053-.336.106-.621.106-.664 0-1.16-.401-1.16-1.143 0-.708.498-1.183 1.229-1.183.291 0 .48.06.561.1l-.078.237c-.111-.054-.275-.093-.471-.093-.553 0-.92.337-.92.928 0 .555.332.906.902.906.188 0 .377-.037.5-.094l.058.236zm3.344-.986h-.912v.813h1.02v.244h-1.328v-2.253h1.275v.244h-.967v.712h.912v.24z"/><use xlink:href="#C"/><path d="M86.264 53.06l-.221-.218c-.201.177-.426.254-.688.254-.457 0-.723-.294-.723-.632 0-.307.191-.514.461-.658v-.01c-.119-.146-.199-.311-.199-.471 0-.274.209-.555.602-.555.293 0 .52.184.52.478 0 .237-.143.425-.518.602v.01l.574.628c.107-.156.182-.374.227-.658h.279c-.063.354-.164.635-.338.832l.387.398h-.363zm-.852-.184a.67.67 0 0 0 .482-.205l-.662-.708c-.129.077-.303.221-.303.458 0 .258.195.455.479.455h.004zm.063-1.905c-.193 0-.293.153-.293.327 0 .16.08.284.178.404.24-.13.391-.25.391-.441 0-.137-.08-.29-.271-.29h-.005zm5.959-.164v2.253h-.307v-2.253h.307zm2.722.247h-.717v-.247h1.744v.247h-.719v2.006h-.309v-2.006z"/><use xlink:href="#C" x="20.834"/><path d="M104.059 53.096c-.627 0-1.059-.461-1.059-1.143 0-.716.461-1.183 1.09-1.183.646 0 1.063.471 1.063 1.139 0 .772-.494 1.187-1.09 1.187h-.004zm.013-.238c.482 0 .754-.424.754-.936 0-.447-.244-.916-.75-.916s-.76.451-.76.939c0 .475.273.912.752.912h.004zm3.213-2.051h.307v2.009h1.008v.244h-1.314v-2.253zm3.651 0v1.337c0 .501.234.715.549.715.346 0 .572-.221.572-.715v-1.337h.309v1.317c0 .691-.381.972-.893.972-.482 0-.846-.261-.846-.962v-1.327h.309zm4.146.247h-.717v-.247h1.744v.247h-.721v2.006h-.307v-2.006zm3.336-.247v2.253h-.309v-2.253h.309zm3.193 2.289c-.625 0-1.059-.461-1.059-1.143 0-.716.461-1.183 1.09-1.183.646 0 1.063.471 1.063 1.139 0 .772-.492 1.187-1.09 1.187h-.004zm.014-.238c.482 0 .756-.424.756-.936 0-.447-.244-.916-.752-.916s-.758.451-.758.939c0 .475.273.912.752.912h.002zm3.217.202v-2.253h.336l.752 1.14c.17.264.311.498.418.732l.012-.004c-.029-.301-.035-.574-.035-.922v-.946h.285v2.253h-.307l-.748-1.144c-.164-.251-.32-.508-.436-.751l-.012.002.021.93v.963h-.286zm4.004-.355a1.06 1.06 0 0 0 .541.147c.311 0 .492-.154.492-.385 0-.207-.125-.331-.443-.445-.385-.133-.623-.326-.623-.641 0-.352.305-.611.762-.611.238 0 .416.053.518.109l-.084.238c-.072-.044-.23-.107-.443-.107-.322 0-.443.184-.443.338 0 .21.143.313.469.434.398.15.598.331.598.662 0 .348-.266.651-.822.651-.227 0-.475-.067-.602-.147l.08-.243z"/></g></svg>